<?xml version="1.0" encoding="utf-8"?>
<svg xmlns="http://www.w3.org/2000/svg" xmlns:xlink="http://www.w3.org/1999/xlink" style="margin: auto; background: rgb(241, 242, 243); display: block; shape-rendering: auto;" width="111px" height="111px" viewBox="0 0 100 100" preserveAspectRatio="xMidYMid">
<g transform="rotate(0 50 50)">
  <rect x="48.5" y="11" rx="0.12" ry="0.12" width="3" height="12" fill="#0a0a0a">
    <animate attributeName="opacity" values="1;0" keyTimes="0;1" dur="0.7042253521126761s" begin="-0.6781429316640585s" repeatCount="indefinite"></animate>
  </rect>
</g><g transform="rotate(13.333333333333334 50 50)">
  <rect x="48.5" y="11" rx="0.12" ry="0.12" width="3" height="12" fill="#0a0a0a">
    <animate attributeName="opacity" values="1;0" keyTimes="0;1" dur="0.7042253521126761s" begin="-0.6520605112154408s" repeatCount="indefinite"></animate>
  </rect>
</g><g transform="rotate(26.666666666666668 50 50)">
  <rect x="48.5" y="11" rx="0.12" ry="0.12" width="3" height="12" fill="#0a0a0a">
    <animate attributeName="opacity" values="1;0" keyTimes="0;1" dur="0.7042253521126761s" begin="-0.6259780907668232s" repeatCount="indefinite"></animate>
  </rect>
</g><g transform="rotate(40 50 50)">
  <rect x="48.5" y="11" rx="0.12" ry="0.12" width="3" height="12" fill="#0a0a0a">
    <animate attributeName="opacity" values="1;0" keyTimes="0;1" dur="0.7042253521126761s" begin="-0.5998956703182056s" repeatCount="indefinite"></animate>
  </rect>
</g><g transform="rotate(53.333333333333336 50 50)">
  <rect x="48.5" y="11" rx="0.12" ry="0.12" width="3" height="12" fill="#0a0a0a">
    <animate attributeName="opacity" values="1;0" keyTimes="0;1" dur="0.7042253521126761s" begin="-0.5738132498695879s" repeatCount="indefinite"></animate>
  </rect>
</g><g transform="rotate(66.66666666666667 50 50)">
  <rect x="48.5" y="11" rx="0.12" ry="0.12" width="3" height="12" fill="#0a0a0a">
    <animate attributeName="opacity" values="1;0" keyTimes="0;1" dur="0.7042253521126761s" begin="-0.5477308294209703s" repeatCount="indefinite"></animate>
  </rect>
</g><g transform="rotate(80 50 50)">
  <rect x="48.5" y="11" rx="0.12" ry="0.12" width="3" height="12" fill="#0a0a0a">
    <animate attributeName="opacity" values="1;0" keyTimes="0;1" dur="0.7042253521126761s" begin="-0.5216484089723527s" repeatCount="indefinite"></animate>
  </rect>
</g><g transform="rotate(93.33333333333333 50 50)">
  <rect x="48.5" y="11" rx="0.12" ry="0.12" width="3" height="12" fill="#0a0a0a">
    <animate attributeName="opacity" values="1;0" keyTimes="0;1" dur="0.7042253521126761s" begin="-0.49556598852373507s" repeatCount="indefinite"></animate>
  </rect>
</g><g transform="rotate(106.66666666666667 50 50)">
  <rect x="48.5" y="11" rx="0.12" ry="0.12" width="3" height="12" fill="#0a0a0a">
    <animate attributeName="opacity" values="1;0" keyTimes="0;1" dur="0.7042253521126761s" begin="-0.46948356807511743s" repeatCount="indefinite"></animate>
  </rect>
</g><g transform="rotate(120 50 50)">
  <rect x="48.5" y="11" rx="0.12" ry="0.12" width="3" height="12" fill="#0a0a0a">
    <animate attributeName="opacity" values="1;0" keyTimes="0;1" dur="0.7042253521126761s" begin="-0.4434011476264998s" repeatCount="indefinite"></animate>
  </rect>
</g><g transform="rotate(133.33333333333334 50 50)">
  <rect x="48.5" y="11" rx="0.12" ry="0.12" width="3" height="12" fill="#0a0a0a">
    <animate attributeName="opacity" values="1;0" keyTimes="0;1" dur="0.7042253521126761s" begin="-0.41731872717788215s" repeatCount="indefinite"></animate>
  </rect>
</g><g transform="rotate(146.66666666666666 50 50)">
  <rect x="48.5" y="11" rx="0.12" ry="0.12" width="3" height="12" fill="#0a0a0a">
    <animate attributeName="opacity" values="1;0" keyTimes="0;1" dur="0.7042253521126761s" begin="-0.3912363067292645s" repeatCount="indefinite"></animate>
  </rect>
</g><g transform="rotate(160 50 50)">
  <rect x="48.5" y="11" rx="0.12" ry="0.12" width="3" height="12" fill="#0a0a0a">
    <animate attributeName="opacity" values="1;0" keyTimes="0;1" dur="0.7042253521126761s" begin="-0.3651538862806469s" repeatCount="indefinite"></animate>
  </rect>
</g><g transform="rotate(173.33333333333334 50 50)">
  <rect x="48.5" y="11" rx="0.12" ry="0.12" width="3" height="12" fill="#0a0a0a">
    <animate attributeName="opacity" values="1;0" keyTimes="0;1" dur="0.7042253521126761s" begin="-0.33907146583202924s" repeatCount="indefinite"></animate>
  </rect>
</g><g transform="rotate(186.66666666666666 50 50)">
  <rect x="48.5" y="11" rx="0.12" ry="0.12" width="3" height="12" fill="#0a0a0a">
    <animate attributeName="opacity" values="1;0" keyTimes="0;1" dur="0.7042253521126761s" begin="-0.3129890453834116s" repeatCount="indefinite"></animate>
  </rect>
</g><g transform="rotate(200 50 50)">
  <rect x="48.5" y="11" rx="0.12" ry="0.12" width="3" height="12" fill="#0a0a0a">
    <animate attributeName="opacity" values="1;0" keyTimes="0;1" dur="0.7042253521126761s" begin="-0.28690662493479396s" repeatCount="indefinite"></animate>
  </rect>
</g><g transform="rotate(213.33333333333334 50 50)">
  <rect x="48.5" y="11" rx="0.12" ry="0.12" width="3" height="12" fill="#0a0a0a">
    <animate attributeName="opacity" values="1;0" keyTimes="0;1" dur="0.7042253521126761s" begin="-0.2608242044861763s" repeatCount="indefinite"></animate>
  </rect>
</g><g transform="rotate(226.66666666666666 50 50)">
  <rect x="48.5" y="11" rx="0.12" ry="0.12" width="3" height="12" fill="#0a0a0a">
    <animate attributeName="opacity" values="1;0" keyTimes="0;1" dur="0.7042253521126761s" begin="-0.23474178403755872s" repeatCount="indefinite"></animate>
  </rect>
</g><g transform="rotate(240 50 50)">
  <rect x="48.5" y="11" rx="0.12" ry="0.12" width="3" height="12" fill="#0a0a0a">
    <animate attributeName="opacity" values="1;0" keyTimes="0;1" dur="0.7042253521126761s" begin="-0.20865936358894108s" repeatCount="indefinite"></animate>
  </rect>
</g><g transform="rotate(253.33333333333334 50 50)">
  <rect x="48.5" y="11" rx="0.12" ry="0.12" width="3" height="12" fill="#0a0a0a">
    <animate attributeName="opacity" values="1;0" keyTimes="0;1" dur="0.7042253521126761s" begin="-0.18257694314032344s" repeatCount="indefinite"></animate>
  </rect>
</g><g transform="rotate(266.6666666666667 50 50)">
  <rect x="48.5" y="11" rx="0.12" ry="0.12" width="3" height="12" fill="#0a0a0a">
    <animate attributeName="opacity" values="1;0" keyTimes="0;1" dur="0.7042253521126761s" begin="-0.1564945226917058s" repeatCount="indefinite"></animate>
  </rect>
</g><g transform="rotate(280 50 50)">
  <rect x="48.5" y="11" rx="0.12" ry="0.12" width="3" height="12" fill="#0a0a0a">
    <animate attributeName="opacity" values="1;0" keyTimes="0;1" dur="0.7042253521126761s" begin="-0.13041210224308816s" repeatCount="indefinite"></animate>
  </rect>
</g><g transform="rotate(293.3333333333333 50 50)">
  <rect x="48.5" y="11" rx="0.12" ry="0.12" width="3" height="12" fill="#0a0a0a">
    <animate attributeName="opacity" values="1;0" keyTimes="0;1" dur="0.7042253521126761s" begin="-0.10432968179447054s" repeatCount="indefinite"></animate>
  </rect>
</g><g transform="rotate(306.6666666666667 50 50)">
  <rect x="48.5" y="11" rx="0.12" ry="0.12" width="3" height="12" fill="#0a0a0a">
    <animate attributeName="opacity" values="1;0" keyTimes="0;1" dur="0.7042253521126761s" begin="-0.0782472613458529s" repeatCount="indefinite"></animate>
  </rect>
</g><g transform="rotate(320 50 50)">
  <rect x="48.5" y="11" rx="0.12" ry="0.12" width="3" height="12" fill="#0a0a0a">
    <animate attributeName="opacity" values="1;0" keyTimes="0;1" dur="0.7042253521126761s" begin="-0.05216484089723527s" repeatCount="indefinite"></animate>
  </rect>
</g><g transform="rotate(333.3333333333333 50 50)">
  <rect x="48.5" y="11" rx="0.12" ry="0.12" width="3" height="12" fill="#0a0a0a">
    <animate attributeName="opacity" values="1;0" keyTimes="0;1" dur="0.7042253521126761s" begin="-0.026082420448617635s" repeatCount="indefinite"></animate>
  </rect>
</g><g transform="rotate(346.6666666666667 50 50)">
  <rect x="48.5" y="11" rx="0.12" ry="0.12" width="3" height="12" fill="#0a0a0a">
    <animate attributeName="opacity" values="1;0" keyTimes="0;1" dur="0.7042253521126761s" begin="0s" repeatCount="indefinite"></animate>
  </rect>
</g>
<!-- [ldio] generated by https://loading.io/ --></svg>